<svg xmlns="http://www.w3.org/2000/svg" enable-background="new 0 0 512 512" viewBox="0 0 512 512" id="cash"><path fill="#00A651" d="M9.5,112.8v286.4h492.9V112.8H9.5z M452.9,147.9c7.1-5.8,18,0.4,16.6,9.4c-0.8,5-5.1,8.7-10.1,8.7
			c-4.5,0-8.5-3-9.8-7.3C448.4,154.9,449.7,150.5,452.9,147.9z M46.6,147.6c7.4-5.3,17.9,1.3,16.1,10.3c-0.9,4.8-5.3,8.3-10.1,8.3
			c-4.5,0-8.5-3-9.8-7.3C41.5,154.8,43.1,150.1,46.6,147.6z M62.5,358.6c-1.1,4.5-5.3,7.7-9.9,7.7c-4.5,0-8.5-3-9.8-7.3
			c-1.3-4.3,0.5-9.2,4.3-11.7C54.8,342.6,64.8,349.9,62.5,358.6z M406.5,356.1H105.5c0-29.2-23.7-52.9-52.9-52.9v-94.4
			c29.2,0,52.9-23.7,52.9-52.9h300.9c0,29.2,23.7,52.9,52.9,52.9v94.4C430.2,303.2,406.5,326.9,406.5,356.1z M469.5,358.1
			c-1,4.7-5.2,8.2-10.1,8.2c-4.2,0-8-2.6-9.6-6.6c-1.6-4.2-0.3-9,3.2-11.7C460.3,342.3,471.3,349,469.5,358.1z"></path><path d="M462.2 356.1c-1.3 5.1-7.7 1.6-4.9-1.9 1.1-1.3 2.4-.9 2.9-.7C461.4 354.1 462.4 355.3 462.2 356.1c-.6 4 1 8.1 5.2 9.2 3.6 1 8.6-1.2 9.2-5.2 1.4-9-2.7-17.4-11.5-20.6-8.4-3.1-18 1-21.8 9.1-4.4 9.5.5 21.3 10.7 24.4 9.9 3 20-3.1 22.6-12.9C479.1 350.8 464.7 346.8 462.2 356.1zM406.5 348.6c-34.1 0-68.2 0-102.3 0-53.9 0-107.8 0-161.7 0-12.3 0-24.7 0-37 0 2.5 2.5 5 5 7.5 7.5-.4-33.2-27.2-60-60.4-60.4 2.5 2.5 5 5 7.5 7.5 0-27.5 0-55 0-82.5 0-4 0-7.9 0-11.9-2.5 2.5-5 5-7.5 7.5 33.2-.4 60-27.2 60.4-60.4-2.5 2.5-5 5-7.5 7.5 34.1 0 68.2 0 102.3 0 53.9 0 107.8 0 161.7 0 12.3 0 24.7 0 37 0-2.5-2.5-5-5-7.5-7.5.4 33.2 27.2 60 60.4 60.4-2.5-2.5-5-5-7.5-7.5 0 27.5 0 55 0 82.5 0 4 0 7.9 0 11.9 2.5-2.5 5-5 7.5-7.5-33.2.4-60 27.2-60.4 60.4-.1 9.7 14.9 9.7 15 0 .3-25 20.4-45.1 45.4-45.4 4.1-.1 7.5-3.4 7.5-7.5 0-27.5 0-55 0-82.5 0-4 0-7.9 0-11.9 0-4.1-3.4-7.4-7.5-7.5-25-.3-45.1-20.4-45.4-45.4-.1-4.1-3.4-7.5-7.5-7.5-34.1 0-68.2 0-102.3 0-53.9 0-107.8 0-161.7 0-12.3 0-24.7 0-37 0-4.1 0-7.4 3.4-7.5 7.5-.3 25-20.4 45.1-45.4 45.4-4.1.1-7.5 3.4-7.5 7.5 0 27.5 0 55 0 82.5 0 4 0 7.9 0 11.9 0 4.1 3.4 7.4 7.5 7.5 25 .3 45.1 20.4 45.4 45.4.1 4.1 3.4 7.5 7.5 7.5 34.1 0 68.2 0 102.3 0 53.9 0 107.8 0 161.7 0 12.3 0 24.7 0 37 0C416.1 363.6 416.1 348.6 406.5 348.6zM55.3 356.7c-1.3 4-7 1.6-5.1-1.8.9-1.6 2.3-1.6 3-1.4C54.6 354 55.6 355.2 55.3 356.7c-.8 4 1.1 8.1 5.2 9.2 3.7 1 8.4-1.2 9.2-5.2 1.9-9.2-2.6-18-11.6-21.2-8.8-3.2-18.6 1.7-22 10.3-3.7 9.5 1.5 20.3 11.2 23.4 9.8 3.1 19.5-3 22.4-12.4C72.7 351.4 58.2 347.5 55.3 356.7zM50.4 154c2.3-1.5 6.8 0 4.6 3.2-2.4 3.6-7.4-.8-3.1-4.4 3.1-2.6 2.7-7.9 0-10.6-3.1-3.1-7.5-2.6-10.6 0-7.7 6.3-8.4 18.4-1.6 25.7 6.8 7.3 18.5 7.5 25.5.4 6.5-6.6 6.8-17.4.6-24.2-5.9-6.4-15.6-7.8-23-3C34.7 146.3 42.2 159.3 50.4 154zM456.7 154.4c2-1.5 2.7-1.6 4.3-.6.8.5 1.7 1.6.9 3.3-1.9 3.8-7.6-.2-3.7-3.8 7.1-6.5-3.5-17.1-10.6-10.6-7.5 6.9-7.8 18.9-.4 26.1 7.1 6.8 18.7 6.3 25.3-.9 6.3-6.8 6.1-17.6-.3-24.2-6-6.1-16.1-7.4-23-2.2-3.2 2.4-4.9 6.5-2.7 10.3C448.3 154.9 453.4 156.8 456.7 154.4z"></path><path d="M2,112.8c0,32.3,0,64.7,0,97c0,51.4,0,102.9,0,154.3c0,11.7,0,23.4,0,35.1c0,4.1,3.4,7.5,7.5,7.5c16.3,0,32.7,0,49,0
				c39.3,0,78.5,0,117.8,0c47.5,0,95,0,142.5,0c41,0,82.1,0,123.1,0c19.8,0,39.8,0.8,59.7,0c0.3,0,0.6,0,0.9,0
				c4.1,0,7.5-3.4,7.5-7.5c0-32.3,0-64.7,0-97c0-51.4,0-102.9,0-154.3c0-11.7,0-23.4,0-35.1c0-4.1-3.4-7.5-7.5-7.5
				c-16.3,0-32.7,0-49,0c-39.3,0-78.5,0-117.8,0c-47.5,0-95,0-142.5,0c-41,0-82.1,0-123.1,0c-19.8,0-39.8-0.8-59.7,0
				c-0.3,0-0.6,0-0.9,0c-9.7,0-9.7,15,0,15c16.3,0,32.7,0,49,0c39.3,0,78.5,0,117.8,0c47.5,0,95,0,142.5,0c41,0,82.1,0,123.1,0
				c13.5,0,27,0,40.4,0c6.3,0,13,0.7,19.2,0c0.3,0,0.6,0,0.9,0c-2.5-2.5-5-5-7.5-7.5c0,32.3,0,64.7,0,97c0,51.4,0,102.9,0,154.3
				c0,11.7,0,23.4,0,35.1c2.5-2.5,5-5,7.5-7.5c-16.3,0-32.7,0-49,0c-39.3,0-78.5,0-117.8,0c-47.5,0-95,0-142.5,0
				c-41,0-82.1,0-123.1,0c-13.5,0-27,0-40.4,0c-6.3,0-13-0.7-19.2,0c-0.3,0-0.6,0-0.9,0c2.5,2.5,5,5,7.5,7.5c0-32.3,0-64.7,0-97
				c0-51.4,0-102.9,0-154.3c0-11.7,0-23.4,0-35.1C17,103.1,2,103.1,2,112.8z"></path><path fill="#006838" d="M406.5,155.9H105.5c0,29.2-23.7,52.9-52.9,52.9v94.4c29.2,0,52.9,23.7,52.9,52.9h300.9
			c0-29.2,23.7-52.9,52.9-52.9v-94.4C430.2,208.8,406.5,185.1,406.5,155.9z M143.8,266.3h-32.8c-5.7,0-10.3-4.6-10.3-10.3
			c0-5.7,4.6-10.3,10.3-10.3h32.8c5.7,0,10.3,4.6,10.3,10.3C154,261.7,149.4,266.3,143.8,266.3z M256,309.3
			c-29.5,0-53.3-23.9-53.3-53.3c0-29.5,23.9-53.3,53.3-53.3s53.3,23.9,53.3,53.3C309.3,285.5,285.5,309.3,256,309.3z M401.1,266.3
			h-32.8c-5.7,0-10.3-4.6-10.3-10.3c0-5.7,4.6-10.3,10.3-10.3h32.8c5.7,0,10.3,4.6,10.3,10.3C411.3,261.7,406.7,266.3,401.1,266.3z"></path><path d="M401.1 258.8c-7.7 0-15.4 0-23.1 0-3 0-6.6.5-9.5 0-3.6-.7-3.9-4.7-.2-5.5 2.4-.5 5.5 0 7.9 0 5.1 0 10.1 0 15.2 0 3 0 6.6-.5 9.5 0C404.2 253.9 405.1 258.5 401.1 258.8c-9.6.6-9.7 15.6 0 15 8.5-.5 15.8-5.9 17.4-14.5 1.6-8.8-3.7-17.7-12.3-20.3-3.5-1.1-7.4-.8-11-.8-5.4 0-10.9 0-16.3 0-10.8 0-23.2-.5-27.4 12.1-2.7 8 .8 17.2 8.2 21.2 4 2.2 8.3 2.2 12.7 2.2 9.6 0 19.2 0 28.8 0C410.7 273.8 410.7 258.8 401.1 258.8zM256 301.8c-19.1-.2-36.9-12.2-43.2-30.5-6.3-18.2-.7-38.5 14.2-50.9 14.8-12.3 36.4-13.6 52.8-3.8 16.2 9.8 25.2 29.5 21.3 48.2C296.5 286.3 277.8 301.6 256 301.8c-9.6.1-9.7 15.1 0 15 25.6-.3 48.3-16.2 57.2-40.2 8.7-23.4 1.1-51.2-18.1-67.1-19.7-16.4-48.3-19-70.4-5.7-21.9 13.2-33 38.8-28.4 63.8 5.2 28.5 31.2 48.9 59.7 49.3C265.7 317 265.7 302 256 301.8zM143.8 258.8c-7.7 0-15.4 0-23.1 0-3 0-6.6.5-9.5 0-3.6-.7-3.9-4.7-.2-5.5 2.4-.5 5.5 0 7.9 0 5.1 0 10.1 0 15.2 0 3 0 6.6-.5 9.5 0C146.9 253.9 147.8 258.5 143.8 258.8c-9.6.6-9.7 15.6 0 15 8.5-.5 15.8-5.8 17.4-14.5 1.6-8.8-3.7-17.7-12.3-20.3-3.5-1.1-7.4-.8-11-.8-5.4 0-10.9 0-16.3 0-10.8 0-23.2-.5-27.4 12.1-2.7 8 .8 17.2 8.2 21.2 4 2.2 8.3 2.2 12.7 2.2 9.6 0 19.2 0 28.8 0C153.4 273.8 153.4 258.8 143.8 258.8z"></path><path d="M406.5,148.4c-34.1,0-68.2,0-102.3,0c-53.9,0-107.8,0-161.7,0c-12.3,0-24.7,0-37,0c-4.1,0-7.4,3.4-7.5,7.5
				c-0.3,25-20.4,45.1-45.4,45.4c-4.1,0.1-7.5,3.4-7.5,7.5c0,27.5,0,55,0,82.5c0,4,0,7.9,0,11.9c0,4.1,3.4,7.4,7.5,7.5
				c25,0.3,45.1,20.4,45.4,45.4c0.1,4.1,3.4,7.5,7.5,7.5c34.1,0,68.2,0,102.3,0c53.9,0,107.8,0,161.7,0c12.3,0,24.7,0,37,0
				c4.1,0,7.4-3.4,7.5-7.5c0.3-25,20.4-45.1,45.4-45.4c4.1-0.1,7.5-3.4,7.5-7.5c0-27.5,0-55,0-82.5c0-4,0-7.9,0-11.9
				c0-4.1-3.4-7.4-7.5-7.5c-25-0.3-45.1-20.4-45.4-45.4c-0.1-9.6-15.1-9.7-15,0c0.4,33.2,27.2,60,60.4,60.4c-2.5-2.5-5-5-7.5-7.5
				c0,27.5,0,55,0,82.5c0,4,0,7.9,0,11.9c2.5-2.5,5-5,7.5-7.5c-33.2,0.4-60,27.2-60.4,60.4c2.5-2.5,5-5,7.5-7.5
				c-34.1,0-68.2,0-102.3,0c-53.9,0-107.8,0-161.7,0c-12.3,0-24.7,0-37,0c2.5,2.5,5,5,7.5,7.5c-0.4-33.2-27.2-60-60.4-60.4
				c2.5,2.5,5,5,7.5,7.5c0-27.5,0-55,0-82.5c0-4,0-7.9,0-11.9c-2.5,2.5-5,5-7.5,7.5c33.2-0.4,60-27.2,60.4-60.4
				c-2.5,2.5-5,5-7.5,7.5c34.1,0,68.2,0,102.3,0c53.9,0,107.8,0,161.7,0c12.3,0,24.7,0,37,0C416.1,163.4,416.1,148.4,406.5,148.4z"></path><g><path fill="#00A651" d="M309.3,256c0,29.5-23.9,53.3-53.3,53.3s-53.3-23.9-53.3-53.3c0-29.5,23.9-53.3,53.3-53.3
			S309.3,226.5,309.3,256z"></path><path d="M301.8,256c-0.2,19.1-12.2,36.9-30.5,43.2c-18.2,6.3-38.5,0.7-50.9-14.2c-12.3-14.8-13.6-36.4-3.8-52.8
				c9.8-16.2,29.5-25.2,48.2-21.3C286.3,215.5,301.6,234.2,301.8,256c0.1,9.6,15.1,9.7,15,0c-0.3-25.6-16.2-48.3-40.2-57.2
				c-23.4-8.7-51.2-1.1-67.1,18.1c-16.4,19.7-19,48.3-5.7,70.4c13.2,21.9,38.8,33,63.8,28.4c28.5-5.2,48.9-31.2,49.3-59.7
				C317,246.3,302,246.3,301.8,256z"></path></g><g><path fill="#39B54A" d="M411.3,256c0,5.7-4.6,10.3-10.3,10.3h-32.8c-5.7,0-10.3-4.6-10.3-10.3c0-5.7,4.6-10.3,10.3-10.3h32.8
			C406.7,245.8,411.3,250.3,411.3,256z"></path><path d="M403.8,256c-0.2,3.2-3.3,2.8-5.6,2.8c-4.5,0-9.1,0-13.6,0s-9.1,0-13.6,0c-2.2,0-5.6,0.4-5.6-2.8c0-3.2,3.4-2.8,5.6-2.8
				c4.5,0,9.1,0,13.6,0s9.1,0,13.6,0C400.5,253.3,403.6,252.8,403.8,256c0.6,9.6,15.6,9.7,15,0c-0.5-8.4-5.8-15.8-14.5-17.4
				c-3.5-0.6-7.3-0.3-10.8-0.3c-8.4,0-16.9-0.4-25.3,0c-8.4,0.4-15.8,5.9-17.4,14.5c-1.6,8.6,3.4,17.3,11.7,20.1
				c3.6,1.2,7.5,1,11.2,1c5.3,0,10.5,0,15.8,0c3.8,0,7.7,0.2,11.5,0c10.1-0.5,17.2-7.8,17.8-17.8C419.4,246.4,404.4,246.4,403.8,256
				z"></path></g><g><path fill="#39B54A" d="M154,256c0,5.7-4.6,10.3-10.3,10.3h-32.8c-5.7,0-10.3-4.6-10.3-10.3c0-5.7,4.6-10.3,10.3-10.3h32.8
			C149.4,245.8,154,250.3,154,256z"></path><path d="M146.5,256c-0.2,3.2-3.3,2.8-5.6,2.8c-4.5,0-9.1,0-13.6,0s-9.1,0-13.6,0c-2.2,0-5.6,0.4-5.6-2.8c0-3.2,3.4-2.8,5.6-2.8
				c4.5,0,9.1,0,13.6,0s9.1,0,13.6,0C143.2,253.3,146.3,252.8,146.5,256c0.6,9.6,15.6,9.7,15,0c-0.5-8.5-5.9-15.8-14.5-17.4
				c-3.5-0.6-7.3-0.3-10.8-0.3c-8.4,0-16.9-0.4-25.3,0c-8.4,0.4-15.8,5.9-17.4,14.5c-1.6,8.6,3.4,17.3,11.7,20.1
				c3.6,1.2,7.5,1,11.2,1c5.3,0,10.5,0,15.8,0c3.8,0,7.7,0.2,11.5,0c10.1-0.5,17.2-7.8,17.8-17.8C162.1,246.4,147.1,246.4,146.5,256
				z"></path></g><g><path fill="#39B54A" d="M469.5,157.4c-0.8,5-5.1,8.7-10.1,8.7c-4.5,0-8.5-3-9.8-7.3c-1.2-3.9,0.1-8.3,3.3-10.9
			C460,142.1,471,148.3,469.5,157.4z"></path><path d="M462.3,155.4c-1.1,5.4-7.5,2.5-5.2-1.1c0.4-0.6,1.1-0.9,1.6-1.1c0.5-0.2,1.1-0.1,1.6,0.2c0.5,0.2,1.1,0.6,1.4,1.1
				c0.6,0.8,0.5,1.4,0.3,2.9c-0.4,4,3.8,7.5,7.5,7.5c4.4,0,7.1-3.5,7.5-7.5c0.9-8.6-5.3-16.6-13.5-18.7c-9.2-2.3-18.4,3.2-21.1,12.2
				c-2.9,9.6,3.3,19.8,12.8,22.2c9.6,2.4,19.6-4.1,21.5-13.7C478.7,150,464.3,145.9,462.3,155.4z"></path></g><g><path fill="#39B54A" d="M469.5,358.1c-1,4.7-5.2,8.2-10.1,8.2c-4.2,0-8-2.6-9.6-6.6c-1.6-4.2-0.3-9,3.2-11.7
			C460.3,342.3,471.3,349,469.5,358.1z"></path><path d="M462.2,356.1c-1.3,5.1-7.7,1.6-4.9-1.9c1.1-1.3,2.4-0.9,2.9-0.7C461.4,354.1,462.4,355.3,462.2,356.1
				c-0.6,4,1,8.1,5.2,9.2c3.6,1,8.6-1.2,9.2-5.2c1.4-9-2.7-17.4-11.5-20.6c-8.4-3.1-18,1-21.8,9.1c-4.4,9.5,0.5,21.3,10.7,24.4
				c9.9,3,20-3.1,22.6-12.9C479.1,350.8,464.7,346.8,462.2,356.1z"></path></g><g><path fill="#39B54A" d="M62.7,157.9c-0.9,4.8-5.3,8.3-10.1,8.3c-4.5,0-8.5-3-9.8-7.3c-1.3-4.1,0.3-8.8,3.8-11.3
			C54,142.3,64.4,148.9,62.7,157.9z"></path><path d="M55.4,155.9c-1.1,4.2-7,2.7-5.4-1.1C51.4,151.6,55.8,153.7,55.4,155.9c-0.6,4,1,8.1,5.2,9.2c3.5,1,8.6-1.2,9.2-5.2
				c1.3-9.1-2.8-17.7-11.9-20.7c-9.1-3.1-19,2-22.2,11c-3.3,9.3,2.1,19.8,11.5,22.7c9.8,3,20-3.2,22.5-13
				C72.3,150.5,57.8,146.5,55.4,155.9z"></path></g><g><path fill="#39B54A" d="M62.5,358.6c-1.1,4.5-5.3,7.7-9.9,7.7c-4.5,0-8.5-3-9.8-7.3c-1.3-4.3,0.5-9.2,4.3-11.7
			C54.8,342.6,64.8,349.9,62.5,358.6z"></path><path d="M55.3,356.7c-1.3,4-7,1.6-5.1-1.8c0.9-1.6,2.3-1.6,3-1.4C54.6,354,55.6,355.2,55.3,356.7c-0.8,4,1.1,8.1,5.2,9.2
				c3.7,1,8.4-1.2,9.2-5.2c1.9-9.2-2.6-18-11.6-21.2c-8.8-3.2-18.6,1.7-22,10.3c-3.7,9.5,1.5,20.3,11.2,23.4
				c9.8,3.1,19.5-3,22.4-12.4C72.7,351.4,58.2,347.5,55.3,356.7z"></path></g></svg>