<svg xmlns="http://www.w3.org/2000/svg" data-name="Layer 1" viewBox="0 0 64 64" id="brochure"><polygon fill="#7ccdf4" points="20 56.962 2 62 2 6.028 20 3 20 56.962"></polygon><polygon fill="#41ead4" points="62 56.962 44 61 44 6.028 62 2 62 56.962"></polygon><polygon fill="#9b9c9b" points="21 56.962 43 61 43 6.028 21 3 21 56.962"></polygon><rect width="12" height="2" x="5" y="11" fill="#9b9c9b"></rect><rect width="12" height="2" x="5" y="17" fill="#9b9c9b"></rect><rect width="12" height="2" x="5" y="23" fill="#9b9c9b"></rect><rect width="12" height="2" x="5" y="29" fill="#9b9c9b"></rect><rect width="12" height="2" x="5" y="35" fill="#9b9c9b"></rect><rect width="12" height="2" x="5" y="41" fill="#9b9c9b"></rect><rect width="12" height="2" x="5" y="47" fill="#9b9c9b"></rect><rect width="12" height="2" x="26" y="13" fill="#7ccdf4"></rect><rect width="12" height="2" x="26" y="19" fill="#7ccdf4"></rect><rect width="12" height="2" x="26" y="25" fill="#7ccdf4"></rect><rect width="12" height="2" x="26" y="31" fill="#7ccdf4"></rect><rect width="12" height="2" x="26" y="37" fill="#7ccdf4"></rect><rect width="12" height="2" x="26" y="43" fill="#7ccdf4"></rect><rect width="12" height="2" x="26" y="49" fill="#7ccdf4"></rect><rect width="12" height="2" x="47" y="15" fill="#4f5d75"></rect><rect width="12" height="2" x="47" y="21" fill="#4f5d75"></rect><rect width="12" height="2" x="47" y="27" fill="#4f5d75"></rect><rect width="12" height="2" x="47" y="33" fill="#4f5d75"></rect><rect width="12" height="2" x="47" y="39" fill="#4f5d75"></rect><rect width="12" height="2" x="47" y="45" fill="#4f5d75"></rect><rect width="12" height="2" x="47" y="51" fill="#4f5d75"></rect></svg>