<svg xmlns="http://www.w3.org/2000/svg" data-name="Layer 1" viewBox="0 0 64 64" id="cost"><defs><linearGradient id="a" x1="1" x2="63" y1="32" y2="32" gradientUnits="userSpaceOnUse"><stop offset="0" stop-color="#ea5a6b"></stop><stop offset="1" stop-color="#5a4ef6"></stop></linearGradient></defs><path fill="url(#a)" d="M14 53a2 2 0 0 0 .87-.2C23.147 48.8 27 42.624 27 33.364a2 2 0 0 0-1.743-1.983c-4.81-.623-6.646-1.96-9.718-5.658a2.07 2.07 0 0 0-3.078 0C9.39 29.42 7.554 30.757 2.743 31.38A2 2 0 0 0 1 33.363c0 9.26 3.854 15.436 12.13 19.438A2 2 0 0 0 14 53ZM5.053 35.06A14.9 14.9 0 0 0 14 30.04a14.9 14.9 0 0 0 8.947 5.02c-.41 6.373-3.225 10.67-8.947 13.699-5.722-3.029-8.536-7.326-8.947-13.699Zm9.361 8.354a2 2 0 0 1-2.828 0l-3-3a2 2 0 0 1 2.828-2.828L13 39.172l3.586-3.586a2 2 0 0 1 2.828 2.828ZM61 48h-7V7a6.007 6.007 0 0 0-6-6H16a6.007 6.007 0 0 0-6 6v14a2 2 0 0 0 4 0V7a2.002 2.002 0 0 1 2-2h32a2.002 2.002 0 0 1 2 2v41H34a2 2 0 0 0-2 2 9.01 9.01 0 0 1-9 9 8.918 8.918 0 0 1-6.552-2.826 2 2 0 0 0-2.91 2.744A13.057 13.057 0 0 0 23 63h27a13.015 13.015 0 0 0 13-13 2 2 0 0 0-2-2ZM50 59H32.373a12.968 12.968 0 0 0 3.473-7h22.93A9.016 9.016 0 0 1 50 59ZM30 9v1.424a4.989 4.989 0 0 1 1.536 1.04 2 2 0 0 1-2.83 2.829A1 1 0 1 0 28 16a4.994 4.994 0 0 1 2 9.576V27a2 2 0 0 1-4 0v-1.424a4.989 4.989 0 0 1-1.536-1.04 2 2 0 0 1 2.83-2.829A1 1 0 1 0 28 20a4.994 4.994 0 0 1-2-9.576V9a2 2 0 0 1 4 0Zm17 27a2 2 0 0 1-2 2h-4a2 2 0 0 1 0-4h4a2 2 0 0 1 2 2Zm-15-2h3a2 2 0 0 1 0 4h-3a2 2 0 0 1 0-4Zm0 6a2 2 0 0 1 0 4h-2a2 2 0 0 1 0-4Zm15 2a2 2 0 0 1-2 2h-7a2 2 0 0 1 0-4h7a2 2 0 0 1 2 2Zm-8-20h6a2 2 0 0 1 0 4h-6a2 2 0 0 1 0-4Zm-3 6h9a2 2 0 0 1 0 4h-9a2 2 0 0 1 0-4Zm5-14a2 2 0 0 1 0-4h4a2 2 0 0 1 0 4Zm-1 2h5a2 2 0 0 1 0 4h-5a2 2 0 0 1 0-4Z"></path></svg>