<svg xmlns="http://www.w3.org/2000/svg" width="100" height="100" enable-background="new 0 0 100 100" viewBox="0 0 100 100" id="dish"><path fill="#F9DA41" d="M49.999 30.864c-19.95 0-36.125 16.172-36.125 36.125h72.25C86.124 47.036 69.945 30.864 49.999 30.864zM57.594 23.271c0 4.188-3.4 7.592-7.595 7.592-4.193 0-7.593-3.404-7.593-7.592 0-4.197 3.399-7.596 7.593-7.596C54.193 15.675 57.594 19.075 57.594 23.271z"></path><path d="M86.124,69.115h-72.25c-1.174,0-2.127-0.953-2.127-2.127c0-21.091,17.16-38.251,38.252-38.251
			c21.093,0,38.252,17.16,38.252,38.251C88.251,68.162,87.298,69.115,86.124,69.115z M16.066,64.861h67.865
			c-1.1-17.759-15.899-31.871-33.932-31.871C31.966,32.991,17.168,47.102,16.066,64.861z"></path><path d="M49.999,32.991c-5.358,0-9.719-4.36-9.719-9.719c0-5.361,4.36-9.723,9.719-9.723c5.36,0,9.722,4.362,9.722,9.723
			C59.721,28.63,55.359,32.991,49.999,32.991z M49.999,17.802c-3.014,0-5.466,2.454-5.466,5.469c0,3.013,2.452,5.465,5.466,5.465
			c3.015,0,5.468-2.452,5.468-5.465C55.467,20.256,53.014,17.802,49.999,17.802z"></path><path fill="#56C6D0" d="M49.999,66.988H4.627c0,0,7.226,4.332,7.226,7.799s0,9.537,10.403,9.537c10.404,0,27.743,0,27.743,0
			s17.34,0,27.745,0c10.401,0,10.401-6.07,10.401-9.537s7.228-7.799,7.228-7.799H49.999z"></path><path d="M77.744,86.451H22.256c-12.53,0-12.53-8.174-12.53-11.664c0-1.297-3.27-4.223-6.192-5.973
			c-0.82-0.494-1.211-1.471-0.956-2.393c0.255-0.924,1.093-1.561,2.049-1.561h90.746c0.956,0,1.795,0.637,2.05,1.561
			c0.255,0.918-0.136,1.898-0.955,2.393c-2.925,1.756-6.195,4.686-6.195,5.973C90.272,78.277,90.272,86.451,77.744,86.451z
			 M10.917,69.115c1.674,1.656,3.062,3.643,3.062,5.672c0,3.473,0,7.41,8.277,7.41h55.488c8.274,0,8.274-3.938,8.274-7.41
			c0-2.029,1.388-4.016,3.063-5.672H10.917z"></path></svg>