<svg id="SvgjsSvg1001" width="288" height="288" xmlns="http://www.w3.org/2000/svg" version="1.1" xmlns:xlink="http://www.w3.org/1999/xlink" xmlns:svgjs="http://svgjs.com/svgjs"><defs id="SvgjsDefs1002"></defs><g id="SvgjsG1008"><svg xmlns="http://www.w3.org/2000/svg" data-name="Layer 2" viewBox="0 0 48 48" width="288" height="288"><path d="m38.22 17-1.95-1.59v-5.25a1.4 1.4 0 1 0-2.79 0v2.93L28.43 9a7 7 0 0 0-8.86 0l-9.79 8a6.92 6.92 0 0 0-2.56 5.38v11.3a7 7 0 0 0 7 7h19.57a7 7 0 0 0 7-7V22.34A6.92 6.92 0 0 0 38.22 17ZM19.81 37.83v-9.68a4.2 4.2 0 0 1 8.39 0v9.68ZM38 33.64a4.2 4.2 0 0 1-4.19 4.19H31v-9.68a7 7 0 0 0-14 0v9.68h-2.8a4.2 4.2 0 0 1-4.2-4.19v-11.3a4.19 4.19 0 0 1 1.54-3.25l9.79-8a4.21 4.21 0 0 1 5.3 0l9.79 8A4.19 4.19 0 0 1 38 22.34Z" fill="#271bab" class="color000 svgShape"></path></svg></g></svg>