<svg id="SvgjsSvg1001" width="288" height="288" xmlns="http://www.w3.org/2000/svg" version="1.1" xmlns:xlink="http://www.w3.org/1999/xlink" xmlns:svgjs="http://svgjs.com/svgjs"><defs id="SvgjsDefs1002"></defs><g id="SvgjsG1008"><svg xmlns="http://www.w3.org/2000/svg" viewBox="0 0 24 24" width="288" height="288"><path d="M21.86,16.49,20.4,14.06A9.83,9.83,0,0,1,19,9,7,7,0,0,0,5,9a9.83,9.83,0,0,1-1.4,5.06L2.14,16.49A1,1,0,0,0,3,18H9.18A3,3,0,0,0,9,19a3,3,0,0,0,6,0,3,3,0,0,0-.18-1H21a1,1,0,0,0,.86-1.51ZM13,19a1,1,0,1,1-1-1A1,1,0,0,1,13,19Z" data-name="22" fill="#ffffff" class="color000 svgShape"></path></svg></g></svg>