<svg xmlns="http://www.w3.org/2000/svg" viewBox="0 0 64 64" id="boiling"><path fill="#ff9811" d="M23.45,14.01a3,3,0,1,1-5.44,2.54l-.42-.91,5.44-2.53Z"></path><path fill="#f7afd1" d="M20.8,4.61l2.23,8.5-5.44,2.53L12.51,8.47a1.994,1.994,0,0,1,.79-2.96l4.72-2.2A2,2,0,0,1,20.8,4.61Z"></path><path fill="#bdfdff" d="M55,22v8.93c-3.83-.25-4.16-1.89-8.6-1.89-4.81,0-4.81,1.92-9.61,1.92s-4.8-1.92-9.59-1.92-4.8,1.92-9.6,1.92c-4.44,0-4.77-1.64-8.6-1.89V22Z"></path><rect width="44" height="3" x="10" y="58" fill="#006468"></rect><rect width="10" height="3" x="11" y="55" fill="#ff9811"></rect><rect width="10" height="3" x="27" y="55" fill="#ff9811"></rect><rect width="10" height="3" x="43" y="55" fill="#ff9811"></rect><path fill="#ffda44" d="M19 52a3 3 0 0 1-6 0c0-1.66 3-5 3-5S19 50.34 19 52zM35 52a3 3 0 0 1-6 0c0-1.66 3-5 3-5S35 50.34 35 52zM51 52a3 3 0 0 1-6 0c0-1.66 3-5 3-5S51 50.34 51 52z"></path><path fill="#ff7956" d="M51,43H13a4,4,0,0,1-4-4V29.07c3.83.25,4.16,1.89,8.6,1.89,4.8,0,4.8-1.92,9.6-1.92s4.79,1.92,9.59,1.92,4.8-1.92,9.61-1.92c4.44,0,4.77,1.64,8.6,1.89V39A4,4,0,0,1,51,43Z"></path><path d="M24.36 13.59l-.39-.82-2.2-8.41A3 3 0 0 0 17.6 2.4L12.88 4.6A3 3 0 0 0 11.7 9.05l5.02 7.1.39.82a3.981 3.981 0 0 0 2.25 2.07 4.077 4.077 0 0 0 1.37.24 4 4 0 0 0 3.63-5.69zm-6.43.79L13.33 7.9a.966.966 0 0 1-.15-.84.956.956 0 0 1 .54-.65l4.72-2.2a1 1 0 0 1 .42-.09 1.065 1.065 0 0 1 .43.09.992.992 0 0 1 .54.65l2.02 7.7zm4.68 1.58a1.947 1.947 0 0 1-1.03 1.13 1.984 1.984 0 0 1-1.53.07 2.006 2.006 0 0 1-1.13-1.03l3.62-1.69A1.957 1.957 0 0 1 22.61 15.96zM60 23H56V22a1 1 0 0 0-1-1H9a1 1 0 0 0-1 1v1H4a2.006 2.006 0 0 0-2 2v5a5 5 0 0 0 5 5H8v4a5 5 0 0 0 5 5H51a5 5 0 0 0 5-5V35h1a5 5 0 0 0 5-5V25A2.006 2.006 0 0 0 60 23zM8 28.04V33H7a3.009 3.009 0 0 1-3-3V25H8zM54 34v5a3.009 3.009 0 0 1-3 3H13a3.009 3.009 0 0 1-3-3V30.191a10.909 10.909 0 0 1 2.427.737A12.02 12.02 0 0 0 17.6 31.96a12.05 12.05 0 0 0 5.171-1.031A10.208 10.208 0 0 1 27.2 30.04a10.211 10.211 0 0 1 4.428.889 12.036 12.036 0 0 0 5.169 1.031 12.054 12.054 0 0 0 5.173-1.031 10.215 10.215 0 0 1 4.43-.889 10.22 10.22 0 0 1 4.431.889 12.387 12.387 0 0 0 3.173.9zm0-10v5.809a10.861 10.861 0 0 1-2.431-.738A12.05 12.05 0 0 0 46.4 28.04a12.048 12.048 0 0 0-5.172 1.031 10.223 10.223 0 0 1-4.431.889 10.227 10.227 0 0 1-4.427-.888A12.02 12.02 0 0 0 27.2 28.04a12.05 12.05 0 0 0-5.171 1.031 10.208 10.208 0 0 1-4.428.889 10.211 10.211 0 0 1-4.428-.889A12.327 12.327 0 0 0 10 28.17V23H54zm6 6a3.009 3.009 0 0 1-3 3H56V25h4zM54 57V55a1 1 0 0 0-1-1H51.44A3.906 3.906 0 0 0 52 52c0-1.94-2.71-5.06-3.26-5.67a1.027 1.027 0 0 0-1.48 0C46.71 46.94 44 50.06 44 52a3.906 3.906 0 0 0 .56 2H43a1 1 0 0 0-1 1v2H38V55a1 1 0 0 0-1-1H35.44A3.906 3.906 0 0 0 36 52c0-1.94-2.71-5.06-3.26-5.67a1.027 1.027 0 0 0-1.48 0C30.71 46.94 28 50.06 28 52a3.906 3.906 0 0 0 .56 2H27a1 1 0 0 0-1 1v2H22V55a1 1 0 0 0-1-1H19.44A3.906 3.906 0 0 0 20 52c0-1.94-2.71-5.06-3.26-5.67a1.027 1.027 0 0 0-1.48 0C14.71 46.94 12 50.06 12 52a3.906 3.906 0 0 0 .56 2H11a1 1 0 0 0-1 1v2a1 1 0 0 0-1 1v3a1 1 0 0 0 1 1H54a1 1 0 0 0 1-1V58A1 1 0 0 0 54 57zm-6-8.45c1.06 1.33 2 2.83 2 3.45a2 2 0 0 1-4 0C46 51.36 46.94 49.87 48 48.55zM44 56h8v1H44zM32 48.55c1.06 1.33 2 2.83 2 3.45a2 2 0 0 1-4 0C30 51.36 30.94 49.87 32 48.55zM28 56h8v1H28zM16 48.55c1.06 1.33 2 2.83 2 3.45a2 2 0 0 1-4 0C14 51.36 14.94 49.87 16 48.55zM12 56h8v1H12zm41 4H11V59H53z"></path><rect width="2" height="2" x="16" y="35"></rect><rect width="2" height="2" x="22" y="38"></rect><rect width="2" height="2" x="27" y="33"></rect><rect width="2" height="2" x="35" y="37"></rect><rect width="2" height="2" x="45" y="32"></rect><rect width="2" height="2" x="42" y="38"></rect><path d="M32 16.5A1.5 1.5 0 0 1 33.5 15 3.5 3.5 0 0 0 37 11.5V10H35v1.5A1.5 1.5 0 0 1 33.5 13 3.5 3.5 0 0 0 30 16.5V17h2zM40 16.5A1.5 1.5 0 0 1 41.5 15 3.5 3.5 0 0 0 45 11.5V10H43v1.5A1.5 1.5 0 0 1 41.5 13 3.5 3.5 0 0 0 38 16.5V17h2zM48 16.5A1.5 1.5 0 0 1 49.5 15 3.5 3.5 0 0 0 53 11.5V10H51v1.5A1.5 1.5 0 0 1 49.5 13 3.5 3.5 0 0 0 46 16.5V17h2z"></path></svg>