<svg xmlns="http://www.w3.org/2000/svg" fill-rule="evenodd" stroke-linejoin="round" stroke-miterlimit="2" clip-rule="evenodd" viewBox="0 0 64 64" id="group"><path fill="#7ad7ee" fill-rule="nonzero" d="M28.66 16C25.008 16 22 19.035 22 22.66v5.4c0 1.07.87 1.94 1.94 1.94h16.13c1.07 0 1.94-.87 1.94-1.94v-5.4c0-3.625-3.009-6.66-6.66-6.66h-6.69Z"></path><path fill="#4ce1a1" fill-rule="nonzero" d="M48.655 48.54c-3.652 0-6.66 3.035-6.66 6.66v5.4c0 1.07.87 1.94 1.94 1.94h16.13c1.07 0 1.94-.87 1.94-1.94v-5.4c0-3.625-3.009-6.66-6.66-6.66h-6.69Z"></path><path fill="#fb4455" fill-rule="nonzero" d="M8.662 48.031c-3.652 0-6.66 3.035-6.66 6.66v5.4c0 1.07.87 1.94 1.94 1.94h16.13c1.07 0 1.94-.87 1.94-1.94v-5.4c0-3.625-3.009-6.66-6.66-6.66h-6.69Z"></path><path fill="#4bc3ef" fill-rule="nonzero" d="M28.655 16h3.69c3.651 0 6.66 3.035 6.66 6.66v5.4c0 1.07-.87 1.94-1.94 1.94h3c1.07 0 1.94-.87 1.94-1.94v-5.4c0-3.625-3.009-6.66-6.66-6.66h-6.69Z"></path><path fill="#3ec2a3" fill-rule="nonzero" d="M48.65 48.54h3.69c3.651 0 6.66 3.035 6.66 6.66v5.4c0 1.07-.87 1.94-1.94 1.94h3c1.07 0 1.94-.87 1.94-1.94v-5.4c0-3.625-3.009-6.66-6.66-6.66h-6.69Z"></path><path fill="#da4455" fill-rule="nonzero" d="M8.657 48.031h3.69c3.651 0 6.66 3.035 6.66 6.66v5.4c0 1.07-.87 1.94-1.94 1.94h3c1.07 0 1.94-.87 1.94-1.94v-5.4c0-3.625-3.009-6.66-6.66-6.66h-6.69Z"></path><path fill="#ffd18d" fill-rule="nonzero" d="M26.02 16.54A6.011 6.011 0 0 0 32 22c3.13 0 5.7-2.4 5.98-5.46h-.008A6.532 6.532 0 0 0 35.37 16h-6.69a6.54 6.54 0 0 0-2.603.54h-.057ZM46.015 49.08a6.011 6.011 0 0 0 5.98 5.46c3.13 0 5.7-2.4 5.98-5.46h-.008a6.532 6.532 0 0 0-2.602-.54h-6.69a6.54 6.54 0 0 0-2.603.54h-.057ZM6.022 48.571a6.011 6.011 0 0 0 5.98 5.46c3.13 0 5.7-2.4 5.98-5.46h-.008a6.532 6.532 0 0 0-2.602-.54h-6.69a6.54 6.54 0 0 0-2.603.54h-.057Z"></path><path fill="#fbbd80" fill-rule="nonzero" d="M27.427 16.121A6.587 6.587 0 0 1 28.683 16h6.69c.412 0 .817.039 1.21.113a9.654 9.654 0 0 1-.22.347l-1.25 1.88a3.729 3.729 0 0 1-3.11 1.66c-1.25 0-2.42-.62-3.11-1.66l-1.25-1.88a9.241 9.241 0 0 1-.216-.339ZM47.422 48.661a6.587 6.587 0 0 1 1.256-.121h6.69c.412 0 .817.039 1.21.113a9.654 9.654 0 0 1-.22.347l-1.25 1.88a3.729 3.729 0 0 1-3.11 1.66c-1.25 0-2.42-.62-3.11-1.66L47.638 49a9.241 9.241 0 0 1-.216-.339ZM7.429 48.152a6.587 6.587 0 0 1 1.256-.121h6.69c.412 0 .817.039 1.21.113a9.654 9.654 0 0 1-.22.347l-1.25 1.88a3.729 3.729 0 0 1-3.11 1.66c-1.25 0-2.42-.62-3.11-1.66l-1.25-1.88a9.241 9.241 0 0 1-.216-.339Z"></path><path fill="#ffd18d" fill-rule="nonzero" d="m36.36 14.46-1.25 1.88A3.729 3.729 0 0 1 32 18c-1.25 0-2.42-.62-3.11-1.66l-1.25-1.88A9.772 9.772 0 0 1 26 9.05V8c0-3.31 2.69-6 6-6s6 2.69 6 6v1.05c0 1.92-.57 3.8-1.64 5.41ZM56.355 47l-1.25 1.88a3.729 3.729 0 0 1-3.11 1.66c-1.25 0-2.42-.62-3.11-1.66L47.635 47a9.772 9.772 0 0 1-1.64-5.41v-1.05c0-3.31 2.69-6 6-6s6 2.69 6 6v1.05c0 1.92-.57 3.8-1.64 5.41ZM16.362 46.491l-1.25 1.88a3.729 3.729 0 0 1-3.11 1.66c-1.25 0-2.42-.62-3.11-1.66l-1.25-1.88a9.772 9.772 0 0 1-1.64-5.41v-1.05c0-3.31 2.69-6 6-6s6 2.69 6 6v1.05c0 1.92-.57 3.8-1.64 5.41Z"></path><path fill="#e29a6c" fill-rule="nonzero" d="M26.011 7.641c.299-5.058 6.645-7.468 10.23-3.882A5.98 5.98 0 0 1 38 8s-.05 0 0 0c-3.28 0-6.15-.63-7.97-1.62-1.03.56-2.409.971-4.019 1.261ZM46.006 40.181c.299-5.058 6.645-7.468 10.23-3.882a5.98 5.98 0 0 1 1.759 4.241s-.05 0 0 0c-3.28 0-6.15-.63-7.97-1.62-1.03.56-2.409.971-4.019 1.261ZM6.013 39.672c.299-5.058 6.645-7.468 10.23-3.882a5.98 5.98 0 0 1 1.759 4.241s-.05 0 0 0c-3.28 0-6.15-.63-7.97-1.62-1.03.56-2.409.971-4.019 1.261Z"></path><path fill="#d48c64" d="M31.109 2.13c1.773-.293 3.679.176 5.132 1.629A5.98 5.98 0 0 1 38 7.962V8c-.687 0-1.356-.028-2.001-.08a5.966 5.966 0 0 0-1.758-4.161 5.746 5.746 0 0 0-3.132-1.629ZM51.104 34.67c1.773-.293 3.679.176 5.132 1.629a5.98 5.98 0 0 1 1.759 4.203v.038c-.687 0-1.356-.028-2.001-.08a5.966 5.966 0 0 0-1.758-4.161 5.746 5.746 0 0 0-3.132-1.629ZM11.111 34.161c1.773-.293 3.679.176 5.132 1.629a5.98 5.98 0 0 1 1.759 4.203v.038c-.687 0-1.356-.028-2.001-.08a5.966 5.966 0 0 0-1.758-4.161 5.746 5.746 0 0 0-3.132-1.629Z"></path><path fill-rule="nonzero" d="M21 22.7v5.4c0 1.6 1.3 2.9 2.9 2.9H40c1.6 0 2.9-1.3 2.9-2.9v-5.4c0-3.6-2.5-6.7-5.9-7.5l.1-.2c1.2-1.8 1.8-3.8 1.8-6V8c0-1.5-.5-2.9-1.4-4.2-.3-.4-1-.5-1.4-.2-.3.4-.4 1-.1 1.4.4.6.7 1.2.9 1.9-2.5-.1-4.9-.7-6.4-1.5-.3-.2-.7-.2-1 0-.6.3-1.4.6-2.2.8C28 4.4 29.8 3 32 3c.6 0 1.1.1 1.7.3.5.2 1.1-.1 1.3-.6.2-.5-.1-1.1-.6-1.3-.8-.3-1.6-.4-2.4-.4-3.9 0-7 3.1-7 7v1c0 2.1.6 4.2 1.8 6l.1.2C23.5 16 21 19 21 22.7zm6-14.2c1.2-.3 2.2-.6 3-1 1.8.8 4.3 1.4 7 1.5 0 1.7-.5 3.4-1.5 4.9l-1.3 1.9c-.4.7-1.3 1.2-2.2 1.2-.9 0-1.8-.5-2.3-1.2l-1.3-1.9c-1-1.4-1.5-3.1-1.5-4.9v-.5h.1zm9.8 8.7c-.5 2.2-2.5 3.8-4.8 3.8s-4.3-1.6-4.8-3.8c.3-.1.7-.2 1-.2.9 1.2 2.3 2 3.8 2s3-.7 3.8-2c.4.1.7.1 1 .2zm-11.5.9C26.2 21 28.9 23 32 23s5.8-2 6.7-4.9c1.4 1 2.3 2.7 2.3 4.6v5.4c0 .5-.4.9-.9.9H23.9c-.5 0-.9-.4-.9-.9v-5.4c0-1.9.9-3.6 2.3-4.6zm31.8 29.1.1-.2c1.2-1.8 1.8-3.8 1.8-6v-1c0-3.9-3.1-7-7-7s-7 3.1-7 7v1c0 2.1.6 4.2 1.8 6l.1.2C43.5 48 41 51 41 54.7v5.4c0 1.6 1.3 2.9 2.9 2.9.6 0 1-.4 1-1s-.4-1-1-1c-.5 0-.9-.4-.9-.9v-5.4c0-1.9.9-3.5 2.3-4.6.9 2.9 3.6 4.9 6.7 4.9s5.8-2 6.7-4.9c1.4 1 2.3 2.7 2.3 4.6v5.4c0 .5-.4.9-.9.9H48c-.6 0-1 .4-1 1s.4 1 1 1h12.1c1.6 0 2.9-1.3 2.9-2.9v-5.4c0-3.7-2.5-6.7-5.9-7.5zM52 35c2.4 0 4.4 1.7 4.9 4-2.6-.1-4.9-.7-6.4-1.5-.3-.2-.7-.2-1 0-.6.3-1.4.6-2.3.8.8-1.9 2.6-3.3 4.8-3.3zm0 18c-2.3 0-4.3-1.6-4.8-3.8.3-.1.7-.2 1-.2.9 1.2 2.3 2 3.8 2s3-.7 3.8-2c.3 0 .7.1 1 .2-.5 2.2-2.5 3.8-4.8 3.8zm5-12c0 1.7-.5 3.4-1.5 4.9l-1.3 1.9c-.4.7-1.3 1.2-2.2 1.2-.9 0-1.8-.5-2.3-1.2l-1.3-1.9c-1-1.4-1.5-3.1-1.5-4.9v-.6c1.1-.3 2.2-.6 3-1 1.9.9 4.4 1.5 7.1 1.6zM22 55c-.6 0-1 .4-1 1v4.1c0 .5-.4.9-.9.9H3.9c-.5 0-.9-.4-.9-.9v-5.4c0-1.9.9-3.5 2.3-4.6C6.2 53 8.9 55 12 55s5.8-2 6.7-4.9c.8.6 1.5 1.4 1.9 2.4.2.4.5.6.9.6.1 0 .3 0 .4-.1.5-.2.7-.8.5-1.3-1-2.3-3-3.9-5.3-4.5l.1-.2c1.2-1.8 1.8-3.8 1.8-6v-1c0-3.9-3.1-7-7-7s-7 3.1-7 7v1c0 2.1.6 4.2 1.8 6l.1.2C3.5 48 1 51 1 54.7v5.4C1 61.7 2.3 63 3.9 63H20c1.6 0 2.9-1.3 2.9-2.9V56c.1-.6-.3-1-.9-1zm-10-2c-2.3 0-4.3-1.6-4.8-3.8.3-.1.7-.2 1-.2.9 1.2 2.3 2 3.8 2s3-.7 3.8-2c.3 0 .7.1 1 .2-.5 2.2-2.5 3.8-4.8 3.8zm0-18c2.4 0 4.4 1.7 4.9 4-2.6-.1-4.9-.7-6.4-1.5-.3-.2-.7-.2-1 0-.6.3-1.4.6-2.2.8C8 36.4 9.8 35 12 35zm-5 5.5c1.2-.3 2.2-.6 3-1 1.8.8 4.3 1.4 7 1.5 0 1.7-.5 3.4-1.5 4.9l-1.3 1.9c-.4.7-1.3 1.2-2.2 1.2-.9 0-1.8-.5-2.3-1.2l-1.2-1.9C7.5 44.5 7 42.8 7 41v-.5zM43 42c0-.6-.4-1-1-1h-2c-.6 0-1 .4-1 1s.4 1 1 1h2c.6 0 1-.4 1-1zm-7-1h-2c-.6 0-1 .4-1 1s.4 1 1 1h2c.6 0 1-.4 1-1s-.4-1-1-1zm-6 0h-2c-.6 0-1 .4-1 1s.4 1 1 1h2c.6 0 1-.4 1-1s-.4-1-1-1zm-6 0h-2c-.6 0-1 .4-1 1s.4 1 1 1h2c.6 0 1-.4 1-1s-.4-1-1-1zm18.1-28.6c.2.4.5.6.9.6.2 0 .3 0 .4-.1.5-.2.7-.8.4-1.3l-1-2c-.2-.5-.8-.7-1.3-.4-.5.2-.7.8-.4 1.3l1 1.9zm3 6c.2.4.5.6.9.6.2 0 .3 0 .4-.1.5-.2.7-.8.4-1.3l-1-2c-.2-.5-.8-.7-1.3-.4-.5.2-.7.8-.4 1.3l1 1.9zm3 6c.2.4.5.6.9.6.2 0 .3 0 .4-.1.5-.2.7-.8.4-1.3l-1-2c-.2-.5-.8-.7-1.3-.4-.5.2-.7.8-.4 1.3l1 1.9zm3 6c.2.4.5.6.9.6.2 0 .3 0 .4-.1.5-.2.7-.8.4-1.3l-1-2c-.2-.5-.8-.7-1.3-.4-.5.2-.7.8-.4 1.3l1 1.9zm-39.5.5c.1.1.2.1.4.1.4 0 .7-.2.9-.6l1-2c.2-.5 0-1.1-.4-1.3-.5-.2-1.1 0-1.3.4l-1 2c-.3.5-.1 1.1.4 1.4zm3-6c.1.1.2.1.4.1.4 0 .7-.2.9-.6l1-2c.2-.5 0-1.1-.4-1.3-.5-.2-1.1 0-1.3.4l-1 2c-.3.5-.1 1.1.4 1.4zm3-6c.1.1.2.1.4.1.4 0 .7-.2.9-.6l1-2c.2-.5 0-1.1-.4-1.3-.5-.2-1.1 0-1.3.4l-1 2c-.3.5-.1 1.1.4 1.4zm3-6c.1.1.2.1.4.1.4 0 .7-.2.9-.6l1-2c.2-.5 0-1.1-.4-1.3-.5-.2-1.1 0-1.3.4l-1 2c-.3.5-.1 1.1.4 1.4z"></path></svg>